<svg xmlns="http://www.w3.org/2000/svg" viewBox="0 0 399.91 457.24"><defs><style>.cls-1{fill:none;}.cls-1,.cls-2,.cls-3{stroke:#231f20;}.cls-1,.cls-2{stroke-linecap:round;stroke-linejoin:round;stroke-width:6px;}.cls-2{fill:#ffca28;}.cls-3{fill:#ff6700;stroke-width:5px;}.cls-4{fill:#fff;}</style></defs><title>doc-form-bg</title><g id="Слой_2" data-name="Слой 2"><g id="Layer_1" data-name="Layer 1"><path class="cls-1" d="M60.15,378.67A197,197,0,0,1,41.52,122.91"/><path class="cls-1" d="M166.67,45.78A198.41,198.41,0,0,1,200,43c108.78,0,197,88.18,197,197a196.33,196.33,0,0,1-57.16,138.73"/><circle class="cls-1" cx="201.33" cy="240.33" r="179.04"/><path class="cls-2" d="M112.18,22.37l13.69,49L70.29,29,80.61,98,44.34,62.5s11.1,44.59,13.69,49l14,23.77,90.38-53.45L148.4,58C146.16,54.21,112.18,22.37,112.18,22.37Z"/><circle class="cls-2" cx="64.62" cy="18.81" r="11.22"/><circle class="cls-2" cx="38.31" cy="53.09" r="9.45"/><circle class="cls-2" cx="107.02" cy="12.45" r="9.45"/><rect class="cls-3" x="55.23" y="391.1" width="292.2" height="63.65" rx="31.82"/><path class="cls-4" d="M313.89,432.53H313v-.44h2.26v.44h-.87V435h-.52Zm2-.49H316l1.39,1.56,1.39-1.56h.09V435h-.52v-1.81l-.91,1.08h-.09l-.91-1.08V435h-.52Z"/><path class="cls-4" d="M94.61,413.37a11.28,11.28,0,0,0-11.28,11.29V435h8.56V424.83a6,6,0,0,1,.8-3.11,2.35,2.35,0,0,1,1.92-1.28,2.32,2.32,0,0,1,1.92,1.28,5.86,5.86,0,0,1,.8,3.11V435h8.57v-10.3a11.28,11.28,0,0,0-11.29-11.29"/><path class="cls-4" d="M299.7,413.37a11.28,11.28,0,0,0-11.29,11.29V435H297V424.83a6,6,0,0,1,.8-3.11,2.08,2.08,0,0,1,3.84,0,6,6,0,0,1,.8,3.11V435H311v-10.3a11.28,11.28,0,0,0-11.29-11.29"/><path class="cls-4" d="M115.12,410.6a4.77,4.77,0,1,0-6.73,0l1,1c1.75,1.75,1.88,2.22.21,3.89l-1,1a4.31,4.31,0,0,0-1.27,3.06V435h8.66v-15.4a4.27,4.27,0,0,0-1.27-3.06l-1-1c-1.67-1.67-1.54-2.14.21-3.89Z"/><path class="cls-4" d="M130.47,428.26a2,2,0,0,1-3.85,0,8.55,8.55,0,0,1,0-7.18,2,2,0,0,1,3.85,0,7.1,7.1,0,0,1,.74,2.53h8.57a11.28,11.28,0,1,0,0,2.12h-8.57A7.1,7.1,0,0,1,130.47,428.26Z"/><path class="cls-4" d="M172.65,413.36a11.29,11.29,0,1,0,8,19.2,9.93,9.93,0,0,0,2.47-5.6h-7.64s-1.05,2.67-2.88,2.67a2.33,2.33,0,0,1-1.92-1.49,7.15,7.15,0,0,1-.71-2.3h13.3s.91-5.43-2.72-9.1A11,11,0,0,0,172.65,413.36Zm-2.48,9.27a8.78,8.78,0,0,1,.56-1.67,2.4,2.4,0,0,1,1.92-1.48c.77,0,1.4.54,1.94,1.52a6.71,6.71,0,0,1,.54,1.62Z"/><path class="cls-4" d="M252.85,413.36a11.29,11.29,0,1,0,8,19.2,9.93,9.93,0,0,0,2.47-5.6h-7.64s-1,2.67-2.88,2.67a2.32,2.32,0,0,1-1.92-1.49,6.91,6.91,0,0,1-.71-2.3h13.3s.91-5.43-2.73-9.1A10.92,10.92,0,0,0,252.85,413.36Zm-2.49,9.27a9.48,9.48,0,0,1,.57-1.67,2.39,2.39,0,0,1,1.92-1.48c.77,0,1.4.54,1.94,1.52a7.17,7.17,0,0,1,.54,1.62Z"/><path class="cls-4" d="M188.82,402.43a4.28,4.28,0,0,0-4.28,4.28l0,28.25h8.56V406.71a4.27,4.27,0,0,0-4.29-4.28"/><path class="cls-4" d="M205.59,413.37a11.29,11.29,0,1,0,11.28,11.29A11.29,11.29,0,0,0,205.59,413.37Zm0,16.37c-1.5,0-2.72-2.28-2.72-5.08s1.22-5.09,2.72-5.09,2.72,2.28,2.72,5.09S207.09,429.74,205.59,429.74Z"/><path class="cls-4" d="M276.07,413.37a11.29,11.29,0,1,0,11.28,11.29A11.28,11.28,0,0,0,276.07,413.37Zm0,16.37c-1.51,0-2.72-2.28-2.72-5.08s1.21-5.09,2.72-5.09,2.72,2.28,2.72,5.09S277.57,429.74,276.07,429.74Z"/><path class="cls-4" d="M240.47,424.66h0v-18a4.29,4.29,0,0,0-8.57,0v7a11.29,11.29,0,0,0-10.71,18.93h0a11.3,11.3,0,0,0,16,0h0a11.26,11.26,0,0,0,3.3-8Zm-11.28,5.08c-1.5,0-2.72-2.28-2.72-5.08s1.22-5.09,2.72-5.09,2.72,2.28,2.72,5.09S230.69,429.74,229.19,429.74Z"/><path class="cls-4" d="M162.61,433.47a1.46,1.46,0,0,0-.23-.79l-4.69-7.09,3.25-5.9a4.28,4.28,0,0,0-7.38-4.35l-3.88,6.94v-4.63a4.29,4.29,0,0,0-8.57,0V435h8.57v-6.77L154.2,435h6.92A1.49,1.49,0,0,0,162.61,433.47Z"/></g></g></svg>