<svg xmlns="http://www.w3.org/2000/svg" viewBox="0 0 227.86 32.44"><defs><style>.cls-1{fill:#ff6700;}</style></defs><title>logo</title><g id="Слой_2" data-name="Слой 2"><g id="Layer_1" data-name="Layer 1"><path class="cls-1" d="M223.05,29.13h-.84V28.7h2.19v.43h-.84v2.35h-.51Zm1.95-.48h.09l1.34,1.51,1.34-1.51h.09v2.83h-.51V29.73l-.87,1h-.09l-.88-1v1.75H225Z"/><path class="cls-1" d="M10.91,10.59A10.91,10.91,0,0,0,0,21.51v10H8.28V21.67a5.84,5.84,0,0,1,.77-3,2.28,2.28,0,0,1,1.86-1.24,2.25,2.25,0,0,1,1.86,1.24,5.66,5.66,0,0,1,.77,3v9.81h8.29v-10A10.91,10.91,0,0,0,10.91,10.59"/><path class="cls-1" d="M209.33,10.59A10.91,10.91,0,0,0,198.4,21.51v10h8.3V21.67a5.75,5.75,0,0,1,.78-3,2,2,0,0,1,3.71,0,5.85,5.85,0,0,1,.78,3v9.81h8.28v-10a10.91,10.91,0,0,0-10.91-10.92"/><path class="cls-1" d="M30.76,7.9A4.61,4.61,0,0,0,27.49,0a4.61,4.61,0,0,0-4.6,4.61A4.55,4.55,0,0,0,24.24,7.9l1,1c1.7,1.7,1.83,2.15.21,3.76l-.93.93a4.21,4.21,0,0,0-1.22,3V31.48h8.38V16.57a4.18,4.18,0,0,0-1.23-3l-.93-.92c-1.61-1.62-1.49-2.07.21-3.77Z"/><path class="cls-1" d="M45.6,25a2.29,2.29,0,0,1-1.86,1.44A2.29,2.29,0,0,1,41.88,25a7.45,7.45,0,0,1-.77-3.47A7.52,7.52,0,0,1,41.88,18a2.28,2.28,0,0,1,1.86-1.43A2.28,2.28,0,0,1,45.6,18a6.78,6.78,0,0,1,.71,2.45h8.3A10.92,10.92,0,1,0,36,29.24a10.92,10.92,0,0,0,18.59-6.69h-8.3A6.72,6.72,0,0,1,45.6,25Z"/><path class="cls-1" d="M86.41,10.58A10.92,10.92,0,1,0,94.2,29.15a9.59,9.59,0,0,0,2.39-5.41H89.2s-1,2.58-2.79,2.58a2.27,2.27,0,0,1-1.86-1.44,6.87,6.87,0,0,1-.68-2.23H96.74s.88-5.25-2.64-8.81A10.61,10.61,0,0,0,86.41,10.58Zm-2.4,9a9,9,0,0,1,.54-1.62,2.31,2.31,0,0,1,1.86-1.43c.75,0,1.35.52,1.88,1.47a6.73,6.73,0,0,1,.52,1.57Z"/><path class="cls-1" d="M164,10.58a10.92,10.92,0,1,0,7.78,18.57,9.51,9.51,0,0,0,2.39-5.41h-7.39s-1,2.58-2.78,2.58a2.27,2.27,0,0,1-1.86-1.44,6.63,6.63,0,0,1-.68-2.23h12.86s.88-5.25-2.64-8.81A10.59,10.59,0,0,0,164,10.58Zm-2.41,9a8.23,8.23,0,0,1,.55-1.62A2.31,2.31,0,0,1,164,16.5c.74,0,1.35.52,1.87,1.47a6.75,6.75,0,0,1,.53,1.57Z"/><path class="cls-1" d="M102.06,0a4.14,4.14,0,0,0-4.14,4.15V31.48h8.29l0-27.33A4.14,4.14,0,0,0,102.06,0"/><path class="cls-1" d="M118.28,10.59a10.92,10.92,0,1,0,10.91,10.92A10.91,10.91,0,0,0,118.28,10.59Zm0,15.83c-1.45,0-2.64-2.2-2.64-4.91s1.19-4.92,2.64-4.92,2.62,2.2,2.62,4.92S119.73,26.42,118.28,26.42Z"/><path class="cls-1" d="M186.46,10.59a10.92,10.92,0,1,0,10.92,10.92A10.91,10.91,0,0,0,186.46,10.59Zm0,15.83c-1.45,0-2.63-2.2-2.63-4.91s1.18-4.92,2.63-4.92,2.63,2.2,2.63,4.92S187.91,26.42,186.46,26.42Z"/><path class="cls-1" d="M152,21.51h0V4.14a4.15,4.15,0,0,0-8.29,0v6.77a10.92,10.92,0,0,0-10.36,18.32h0a10.91,10.91,0,0,0,15.44,0h0a10.91,10.91,0,0,0,3.2-7.72Zm-10.92,4.91c-1.46,0-2.63-2.2-2.63-4.91s1.17-4.92,2.63-4.92,2.63,2.2,2.63,4.92S142.56,26.42,141.11,26.42Z"/><path class="cls-1" d="M76.69,30a1.52,1.52,0,0,0-.21-.76l-4.54-6.86,3.14-5.71a4.14,4.14,0,1,0-7.14-4.2l-3.75,6.7V14.73a4.15,4.15,0,0,0-8.29,0V31.48h8.29V24.92l4.37,6.56h6.69A1.43,1.43,0,0,0,76.69,30Z"/></g></g></svg>