<svg xmlns="http://www.w3.org/2000/svg" viewBox="0 0 463.32 508"><defs><style>.cls-1{fill:#f48fb1;}.cls-2{fill:#231f20;}.cls-3,.cls-6{fill:#fff;}.cls-3{opacity:0.25;}.cls-4{fill:#93a4ad;}.cls-5{fill:#b3e5fc;}.cls-7{fill:#ffca28;}.cls-8{fill:#ff6700;}.cls-9{fill:#647c8a;}.cls-10{fill:#586d79;}</style></defs><title>Ресурс 7</title><g id="Слой_2" data-name="Слой 2"><g id="Layer_1" data-name="Layer 1"><circle class="cls-1" cx="225.8" cy="267.34" r="179.04"/><path class="cls-2" d="M225.8,449.38c-100.38,0-182-81.66-182-182s81.66-182,182-182,182,81.66,182,182S326.18,449.38,225.8,449.38Zm0-358.08c-97.07,0-176,79-176,176s79,176,176,176,176-79,176-176S322.87,91.3,225.8,91.3Z"/><path class="cls-2" d="M325.14,96.89a3,3,0,0,1-1.49-.4,196.11,196.11,0,0,0-187.78-3.74,3,3,0,1,1-2.78-5.31,202.06,202.06,0,0,1,193.54,3.85,3,3,0,0,1-1.49,5.6Z"/><path class="cls-2" d="M27.89,258.26h-.16a3,3,0,0,1-2.83-3.17,200.41,200.41,0,0,1,13.94-63.32A3,3,0,0,1,44.41,194a194.8,194.8,0,0,0-13.52,61.44A3,3,0,0,1,27.89,258.26Z"/><path class="cls-2" d="M411.56,197.13a3,3,0,0,1-2.8-1.91,194.74,194.74,0,0,0-45.24-68.49,3,3,0,1,1,4.2-4.28A200.45,200.45,0,0,1,414.35,193a3,3,0,0,1-1.7,3.89A3.22,3.22,0,0,1,411.56,197.13Z"/><path class="cls-2" d="M22.15,363.53a3,3,0,0,1-2.75-1.78A225.61,225.61,0,0,1,385.09,110.58a224.08,224.08,0,0,1,66.08,159.51,3,3,0,0,1-6,0C445.17,149,346.66,50.5,225.58,50.5S6,149,6,270.09a217.93,217.93,0,0,0,18.88,89.22,3,3,0,0,1-1.52,4A2.9,2.9,0,0,1,22.15,363.53Z"/><path class="cls-2" d="M43.8,408a4.68,4.68,0,0,1-1,1.09,18.54,18.54,0,0,1-1.71,1.37c-.66.49-1.38,1-2.17,1.5s-1.56,1-2.33,1.48-1.51.89-2.23,1.26-1.34.69-1.87.93a4.19,4.19,0,0,1-1.69-.63,7.27,7.27,0,0,1-1.6-1.36,6.52,6.52,0,0,1-1.17-1.89,4.81,4.81,0,0,1-.38-2.21,5.18,5.18,0,0,1,.73-2.33,7,7,0,0,1,2.18-2.22l-.23-.38-.18-.37-2.09-3q-1.16-1.69-2.37-3.54t-2.43-3.7c-.81-1.25-1.57-2.43-2.27-3.56-.58.42-1.21.87-1.9,1.34s-1.48,1-2.38,1.51a8.43,8.43,0,0,1-3.12-2.28,5.75,5.75,0,0,1-1.38-3.05,5.88,5.88,0,0,1,.67-3.36,9,9,0,0,1,3-3.22c.33-.24.74-.51,1.22-.8a11.83,11.83,0,0,1,1.59-.82,10.64,10.64,0,0,1,1.86-.59,7.13,7.13,0,0,1,2.08-.13,6.55,6.55,0,0,1,2.23.59,8.36,8.36,0,0,1,2.31,1.58q2.19-.86,4.94-1.69c1.84-.56,3.68-1.07,5.5-1.54s3.55-.86,5.16-1.19a39.38,39.38,0,0,1,4-.64c.56.46,1.19,1,1.88,1.69a19.86,19.86,0,0,1,2,2.23,16.19,16.19,0,0,1,1.68,2.71,10.17,10.17,0,0,1,.95,3.09,9.39,9.39,0,0,1-.16,3.4,10.46,10.46,0,0,1-1.7,3.64c-.43.61-1,1.33-1.69,2.14s-1.46,1.67-2.3,2.6-1.74,1.89-2.71,2.88-1.93,2-2.89,2.93c.45.9.84,1.74,1.18,2.52S43.61,407.36,43.8,408Zm-9.7-17.53c.37.54.73,1.09,1.09,1.64l1.08,1.7q2.13-2,4-3.64l3.14-2.75-.15-.23-3.46,1.21-3.52,1.25c-.34.12-.68.25-1,.4Z"/><path class="cls-2" d="M44.35,412c.49-.49,1.19-1.12,2.07-1.92s1.87-1.66,3-2.6,2.24-1.92,3.46-2.94,2.4-2,3.57-2.93,2.25-1.8,3.28-2.6,1.9-1.44,2.61-1.92c.63.59,1.34,1.31,2.14,2.16S66.09,401,67,402s1.81,2,2.75,3.12,1.84,2.14,2.7,3.18,1.66,2,2.4,3,1.4,1.79,2,2.53a4.2,4.2,0,0,1-.61,1.2,7,7,0,0,1-1.26,1.4,8.7,8.7,0,0,1-1.78,1.17,5.28,5.28,0,0,1-2.13.57,5,5,0,0,1-2.34-.49,7,7,0,0,1-2.43-1.93L62.09,411l-1.2,1q.44.51,1.26,1.38c.54.59,1.11,1.22,1.69,1.91s1.13,1.39,1.66,2.13a10.75,10.75,0,0,1,1.2,2A8.66,8.66,0,0,1,65,422a4.77,4.77,0,0,1-2.13,1.28,4,4,0,0,1-2.38-.09,6,6,0,0,1-2.39-1.62c-.27-.28-.52-.55-.74-.8l-.71-.83-.86-1c-.32-.39-.72-.85-1.19-1.39l-1.41,1.22.46.53,6.45,7.44a6.73,6.73,0,0,1-1.33,2.64,5.74,5.74,0,0,1-2.32,1.72,5.36,5.36,0,0,1-3,.27,6.71,6.71,0,0,1-3.26-1.74c-.33-.29-.73-.68-1.22-1.18s-1-1.05-1.56-1.65-1.11-1.25-1.68-1.92l-1.62-1.94c-.51-.62-1-1.2-1.34-1.74a12.12,12.12,0,0,1-.84-1.3,5,5,0,0,1-.43-3.84A10.25,10.25,0,0,1,44.35,412Z"/><path class="cls-2" d="M79.41,430.43l4.4,3.92c.59-.63,1.19-1.29,1.82-2l1.8-2c.57-.63,1.1-1.19,1.6-1.69s.91-.89,1.23-1.15a6.49,6.49,0,0,1,2.33.61,8.1,8.1,0,0,1,2,1.39,7.78,7.78,0,0,1,1.53,2,6.79,6.79,0,0,1,.79,2.32,6,6,0,0,1-.14,2.42,5.73,5.73,0,0,1-1.3,2.31l-1.37,1.54-1.94,2.18L89.83,445l-2.62,3L84.45,451l-2.68,3c-.35.4-.75.84-1.18,1.31s-.79.83-1,1.06a2.78,2.78,0,0,1-1.41-.31A10.15,10.15,0,0,1,76.26,455a13,13,0,0,1-1.9-1.63,8.09,8.09,0,0,1-1.46-2,5.24,5.24,0,0,1-.55-2.28,4,4,0,0,1,.76-2.34,13.85,13.85,0,0,1,.89-1.2c.38-.47.76-.95,1.16-1.43l1.15-1.36.88-1L72.9,437.9l-6.26,7a4,4,0,0,1-1.53-.38,10.53,10.53,0,0,1-2-1.09,10.33,10.33,0,0,1-1.91-1.68,6.41,6.41,0,0,1-1.33-2.18,5.57,5.57,0,0,1-.24-2.59A6.08,6.08,0,0,1,61,434.14c.33-.44.86-1.1,1.6-2l2.5-3q1.41-1.68,3-3.55T71.33,422c1-1.19,2-2.29,3-3.32s1.74-1.86,2.4-2.51a7.86,7.86,0,0,1,2.5.53,8.11,8.11,0,0,1,2.16,1.26A8.66,8.66,0,0,1,83,419.7a7,7,0,0,1,1,2.07,5.41,5.41,0,0,1,.14,2.15,4.73,4.73,0,0,1-.84,2c-.4.54-.82,1.07-1.25,1.59l-1.2,1.4c-.37.41-.69.75-1,1Z"/><path class="cls-2" d="M105.08,448.7a4.69,4.69,0,0,1,.64.18,9.77,9.77,0,0,1,1.21.53,14.11,14.11,0,0,1,1.54.95,12.05,12.05,0,0,1,1.67,1.39,11,11,0,0,1,1.55,1.9,11.65,11.65,0,0,1,1.21,2.45,9.94,9.94,0,0,1,.55,3.62,11,11,0,0,1-.7,3.46,12.78,12.78,0,0,1-1.67,3.11,13.37,13.37,0,0,1-2.37,2.49,11.19,11.19,0,0,1-2.78,1.66,8,8,0,0,1-3,.61,11.66,11.66,0,0,1-3.84-.66,22.86,22.86,0,0,1-3.91-1.73,28.82,28.82,0,0,1-3.68-2.42,31.89,31.89,0,0,1-3.12-2.73,20.25,20.25,0,0,1-2.25-2.65,6.49,6.49,0,0,1-1.08-2.18,13.61,13.61,0,0,1,.93-1.94c.46-.84,1-1.79,1.67-2.87s1.39-2.23,2.19-3.46,1.62-2.48,2.45-3.73,1.67-2.46,2.5-3.64,1.59-2.26,2.29-3.23,1.31-1.8,1.84-2.48.91-1.14,1.16-1.4a7.39,7.39,0,0,1,3.75.65,8.42,8.42,0,0,1,2.83,2.06,6.57,6.57,0,0,1,1.47,2.71,3.45,3.45,0,0,1-.31,2.64c-.8,1.38-1.44,2.42-1.93,3.11s-.82,1.16-1,1.4a.06.06,0,0,0,0,.07l.06.12S105.07,448.71,105.08,448.7Zm-6.24,10.21a3,3,0,0,0,1,1.22,2.78,2.78,0,0,0,1.22.5,2.36,2.36,0,0,0,1.16-.11,1.58,1.58,0,0,0,.81-.6q1-1.46,0-2.43a6.93,6.93,0,0,0-.89-.71l-1-.65a.34.34,0,0,0-.25,0,.37.37,0,0,0-.23.12c-.32.43-.61.85-.87,1.25Z"/><path class="cls-2" d="M150.41,472.82a7.23,7.23,0,0,0-2.25-1.19,6.64,6.64,0,0,0-2.38-.21,4,4,0,0,0-1.63.49,4.59,4.59,0,0,0-1.3,1.06,7,7,0,0,0-1,1.47,9,9,0,0,0-.6,1.66,5.46,5.46,0,0,0-.09,2.46,5.1,5.1,0,0,0,.9,2,5.42,5.42,0,0,0,1.64,1.43,7.54,7.54,0,0,0,2.14.85,6.59,6.59,0,0,0,1.67.2,16.7,16.7,0,0,0,1.76-.07c.56-.05,1.07-.11,1.55-.19l1-.15a4.49,4.49,0,0,1,1.5,1.56,5.74,5.74,0,0,1,.73,2.13,6,6,0,0,1-.16,2.33,5.46,5.46,0,0,1-1.19,2.2,7,7,0,0,1-2.36,1.68,10.14,10.14,0,0,1-3.64.8,11.19,11.19,0,0,1-2.86-.25,18.55,18.55,0,0,1-3.07-.92,26.24,26.24,0,0,1-2.94-1.36,20.51,20.51,0,0,1-2.48-1.56,13.91,13.91,0,0,1-4.73-5.71,14.91,14.91,0,0,1-1-7.3,20.46,20.46,0,0,1,1.3-5.34,16.42,16.42,0,0,1,2.86-4.69,13.13,13.13,0,0,1,2.33-2.15,14.31,14.31,0,0,1,2.67-1.54,15.3,15.3,0,0,1,2.82-.94,16.2,16.2,0,0,1,2.75-.38,17.79,17.79,0,0,1,3.75.32,19.38,19.38,0,0,1,4.24,1.3,22.75,22.75,0,0,1,4.27,2.46,19.43,19.43,0,0,1,3.86,3.74,7,7,0,0,1-.78,2.6,5.66,5.66,0,0,1-1.46,1.76,5.23,5.23,0,0,1-1.9.95,6.57,6.57,0,0,1-2.11.22,6.22,6.22,0,0,1-2.06-.5A6.12,6.12,0,0,1,150.41,472.82Z"/><path class="cls-2" d="M158,487.73c.44-.94,1-2,1.54-3.08s1.21-2.23,1.88-3.37,1.36-2.29,2.07-3.43,1.39-2.21,2.06-3.22,1.31-1.93,1.92-2.77,1.16-1.52,1.63-2.06c.72-.06,1.57-.08,2.54-.08a21.44,21.44,0,0,1,3,.25,16.4,16.4,0,0,1,3.13.81,10.71,10.71,0,0,1,2.88,1.6,9.47,9.47,0,0,1,2.25,2.62,11.19,11.19,0,0,1,1.3,3.85c.09.72.2,1.61.31,2.65s.22,2.19.31,3.42.16,2.53.23,3.89.12,2.73.16,4.08,0,2.68,0,4-.06,2.47-.13,3.55a3.06,3.06,0,0,1-1.25,1.38,6.72,6.72,0,0,1-2.19.89,8,8,0,0,1-2.65.12,6.26,6.26,0,0,1-2.58-.86,5.85,5.85,0,0,1-2-2.1,7.82,7.82,0,0,1-.9-3.55c-.94-.27-1.92-.51-2.93-.73s-2-.46-2.93-.73q-.61.86-1.23,1.86c-.4.67-.81,1.37-1.22,2.09a10.06,10.06,0,0,1-4.91-.44,5.54,5.54,0,0,1-2.82-2.33,6.43,6.43,0,0,1-.77-3.71A13.13,13.13,0,0,1,158,487.73Zm12.83-.59,3.67.89c0-1.27,0-2.54,0-3.8s0-2.51,0-3.77a.73.73,0,0,1-.27,0l-1.7,3.32Q171.65,485.4,170.78,487.14Z"/><path class="cls-2" d="M208.18,491.8a2.14,2.14,0,0,0,.12-.28,1.31,1.31,0,0,1,.11-.29c.64-2,1.27-4,1.9-6s1.27-3.95,1.9-5.95c.11-.3.23-.59.37-.88l.39-.84a8.41,8.41,0,0,1,3.95-1.08,7.56,7.56,0,0,1,3.68.81,7.25,7.25,0,0,1,4,6.41c0,.58.07,1.36.1,2.35s.07,2,.13,3.18.09,2.27.13,3.41.08,2.16.11,3.07c.08,1.77.14,3.44.19,5s.1,3.24.16,5a6.47,6.47,0,0,1-2,1.53,7,7,0,0,1-2.22.65,6,6,0,0,1-2.19-.17,5.37,5.37,0,0,1-1.89-.92,5,5,0,0,1-1.35-1.59,4.54,4.54,0,0,1-.54-2.18c0-.92,0-1.72,0-2.4s0-1.36.09-2,.09-1.43.15-2.25.11-1.81.16-3a.39.39,0,0,1-.18-.05,9.1,9.1,0,0,0-.27,1c-.08.31-.17.62-.28.92-.57,1.76-1.14,3.5-1.7,5.24s-1.14,3.49-1.74,5.25a5.67,5.67,0,0,1-1.36.45,8.65,8.65,0,0,1-1.83.22,9,9,0,0,1-2-.16,6,6,0,0,1-1.9-.69,4.92,4.92,0,0,1-1.52-1.36,4.55,4.55,0,0,1-.84-2.13c-.13-.74-.26-1.65-.41-2.71s-.31-2.09-.47-3.11-.32-1.94-.45-2.76-.24-1.36-.3-1.61c-.18,1.15-.35,2.26-.5,3.33s-.32,2.11-.48,3.14-.31,2.09-.47,3.17-.33,2.19-.5,3.37a11.52,11.52,0,0,1-2.62.79,8,8,0,0,1-2.48,0,5.73,5.73,0,0,1-2.14-.81,4.51,4.51,0,0,1-1.55-1.71,6.61,6.61,0,0,1-.7-2.7,13,13,0,0,1,.36-3.76c.42-1.79.89-3.6,1.43-5.44s1-3.64,1.46-5.43.86-3.33,1.3-5,.87-3.31,1.3-5a4.6,4.6,0,0,1,1.63-.81,8.45,8.45,0,0,1,2.2-.34A9.05,9.05,0,0,1,201,475a7.08,7.08,0,0,1,4.16,2.75,6.5,6.5,0,0,1,1.1,2.72q.15.82.33,1.86c.11.7.23,1.43.34,2.2s.23,1.55.35,2.33.24,1.54.37,2.25c0,0,0,.2.05.47s.08.56.12.87.07.6.11.87a3.1,3.1,0,0,0,.09.47Z"/><path class="cls-2" d="M243.49,475.52a19.33,19.33,0,0,1,4.69.14,15.33,15.33,0,0,1,3.74,1.08,13.14,13.14,0,0,1,2.86,1.68,14.55,14.55,0,0,1,2.07,2,15.08,15.08,0,0,1,1.39,1.9c.35.6.63,1.09.83,1.49a21.64,21.64,0,0,1,1.75,5.81,16.82,16.82,0,0,1-.22,6.06,13.9,13.9,0,0,1-9.84,10.85,20.24,20.24,0,0,1-6.49,1,16.67,16.67,0,0,1-6.4-1.37,12.52,12.52,0,0,1-5-3.51,15.13,15.13,0,0,1-2.87-5.35,20.55,20.55,0,0,1-.71-3,21.63,21.63,0,0,1-.28-3.07,19,19,0,0,1,.15-2.95,12.72,12.72,0,0,1,.64-2.67,18.82,18.82,0,0,1,1.62-3.37,13,13,0,0,1,2.65-3.09,15.52,15.52,0,0,1,3.94-2.41A17.62,17.62,0,0,1,243.49,475.52Zm1.06,10.93a3.84,3.84,0,0,0-1.59.49,3.63,3.63,0,0,0-1.25,1.16,5.06,5.06,0,0,0-.72,1.82,7,7,0,0,0,0,2.43,6.19,6.19,0,0,0,.71,2.2,4.57,4.57,0,0,0,1.16,1.38,3.44,3.44,0,0,0,1.36.69,3,3,0,0,0,1.32.06,3.52,3.52,0,0,0,1.22-.41,3.4,3.4,0,0,0,1.11-.94,4.85,4.85,0,0,0,.8-1.54,7.79,7.79,0,0,0-.15-4.51,4.88,4.88,0,0,0-1-1.64,3.94,3.94,0,0,0-1.37-.95A3.59,3.59,0,0,0,244.55,486.45Z"/><path class="cls-2" d="M273.53,481.05c0-.2.12-.55.25-1.06s.28-1.1.46-1.78.36-1.4.56-2.17.39-1.5.59-2.22.39-1.35.58-1.93a11.93,11.93,0,0,1,.5-1.32,7.83,7.83,0,0,1,2.36-.74,9,9,0,0,1,2.48,0,7.2,7.2,0,0,1,2.26.66,5.17,5.17,0,0,1,1.76,1.36,4.64,4.64,0,0,1,1,2,5.49,5.49,0,0,1-.14,2.64c-.12.49-.32,1.18-.6,2.08s-.59,1.92-.95,3.07-.77,2.38-1.21,3.7-.89,2.66-1.35,4-.92,2.68-1.37,4-.89,2.51-1.29,3.61-.78,2.07-1.13,2.9-.62,1.46-.84,1.88a8.75,8.75,0,0,1-2.88,1.66,6.59,6.59,0,0,1-2.69.32,5.23,5.23,0,0,1-2.29-.76,5.07,5.07,0,0,1-1.64-1.65,5.41,5.41,0,0,1-.73-2.34,6.68,6.68,0,0,1,.4-2.82c.28-.81.49-1.41.64-1.79l.34-.87.2-.53c.05-.15.13-.41.23-.79a.92.92,0,0,0-.15-.71,6.55,6.55,0,0,0-.49-.63c-.91-1-1.81-2-2.71-2.9s-1.77-1.86-2.64-2.8-1.73-1.9-2.58-2.9-1.72-2.09-2.59-3.28a6.93,6.93,0,0,1,.95-2.36,7.94,7.94,0,0,1,1.58-1.77,7.15,7.15,0,0,1,1.93-1.15,6.43,6.43,0,0,1,2-.48,5.26,5.26,0,0,1,1.88.21,3.64,3.64,0,0,1,1.49.9c.49.52.94,1,1.34,1.53l1.19,1.48,1.17,1.48c.4.5.82,1,1.28,1.58.09.12.18.25.28.37s.2.26.3.41Z"/><path class="cls-2" d="M299.16,463.35a50.47,50.47,0,0,1,4.83-1.54,19.16,19.16,0,0,1,4.75-.68,8.94,8.94,0,0,1,4,.79,4.89,4.89,0,0,1,2.53,2.88l7,18.52.31.83c.11.29.21.58.31.87s.18.56.26.8.12.46.17.64a2.76,2.76,0,0,1-.92,1.1,10.3,10.3,0,0,1-1.81,1.16,13.85,13.85,0,0,1-2.32.92,8.2,8.2,0,0,1-2.48.34,5.32,5.32,0,0,1-2.29-.58,4.1,4.1,0,0,1-1.74-1.8A16.5,16.5,0,0,1,311,486l-1.13-2.83c-.43-1.09-.88-2.24-1.35-3.47s-.92-2.39-1.33-3.47-.78-2-1.07-2.79l-.56-1.49-5.4,2,6.95,18.52a4.18,4.18,0,0,1-1,1.2,10.35,10.35,0,0,1-1.86,1.23,10.91,10.91,0,0,1-2.36.91,6.73,6.73,0,0,1-2.56.16,5.31,5.31,0,0,1-2.41-1,6.33,6.33,0,0,1-1.92-2.58c-.24-.52-.57-1.28-1-2.29s-.91-2.16-1.44-3.45-1.08-2.68-1.65-4.15-1.13-2.9-1.68-4.32-1-2.75-1.49-4-.82-2.36-1.09-3.26a12,12,0,0,1,2.45-2.33,31.32,31.32,0,0,1,3.28-2.12c1.17-.65,2.36-1.25,3.55-1.79S298.19,463.71,299.16,463.35Z"/><path class="cls-2" d="M342.82,465a10.08,10.08,0,0,1-2.27,3.27,14.92,14.92,0,0,1-2.67,2,10.65,10.65,0,0,1-2.31,1.05,8.9,8.9,0,0,1-1.21.29s0,0-.05,0l-.05,0s0,0,0,0,0,0,0,.07.22.42.47.87.53,1,.87,1.65l1.06,2.15c.37.77.72,1.54,1,2.3a4.4,4.4,0,0,1-.89,1.73,5.77,5.77,0,0,1-1.61,1.37,7,7,0,0,1-2.11.8,6.44,6.44,0,0,1-2.4.05,7.24,7.24,0,0,1-2.48-.9,8.87,8.87,0,0,1-2.38-2.08c-.28-.36-.72-1-1.31-2s-1.24-2.06-2-3.33-1.48-2.62-2.25-4.06-1.5-2.84-2.18-4.2-1.26-2.59-1.76-3.72a16.4,16.4,0,0,1-1-2.61,6.79,6.79,0,0,1,1.28-2.08,20.54,20.54,0,0,1,2.48-2.43,32,32,0,0,1,3.36-2.43,27.3,27.3,0,0,1,3.88-2.08,23.29,23.29,0,0,1,4.05-1.37,11.9,11.9,0,0,1,3.89-.3,7.81,7.81,0,0,1,2.89.89,11.51,11.51,0,0,1,2.63,1.92,13.33,13.33,0,0,1,2.14,2.7,12.27,12.27,0,0,1,1.37,3.23,11.79,11.79,0,0,1,.38,3.51A9.34,9.34,0,0,1,342.82,465Zm-9.51-4.71a1.55,1.55,0,0,0-.75-.67,2.26,2.26,0,0,0-1.14-.2,3.07,3.07,0,0,0-1.25.39,2.77,2.77,0,0,0-1.09,1.11l.81,1.49c.23.43.48.87.76,1.32a.3.3,0,0,0,.22.16.3.3,0,0,0,.25,0l1-.54a8.34,8.34,0,0,0,1-.63C333.8,462.08,333.87,461.28,333.31,460.25Z"/><path class="cls-2" d="M347.68,463.36c-.44-.95-.88-2-1.34-3.17s-.91-2.38-1.35-3.63-.85-2.51-1.26-3.79-.77-2.51-1.1-3.67-.62-2.24-.86-3.26-.4-1.87-.51-2.57c.43-.59,1-1.25,1.6-2a19.76,19.76,0,0,1,2.15-2.14,16.45,16.45,0,0,1,2.65-1.85,10.36,10.36,0,0,1,3.09-1.14,9.29,9.29,0,0,1,3.45,0,10.75,10.75,0,0,1,3.77,1.51c.61.4,1.35.89,2.22,1.49s1.8,1.26,2.79,2,2,1.52,3.11,2.35,2.15,1.68,3.21,2.53,2.07,1.71,3,2.55,1.85,1.65,2.62,2.41a3.11,3.11,0,0,1,.24,1.85,6.73,6.73,0,0,1-.75,2.24,8.17,8.17,0,0,1-1.63,2.09,6.1,6.1,0,0,1-2.34,1.4,5.76,5.76,0,0,1-2.88.15,7.71,7.71,0,0,1-3.28-1.62c-.82.54-1.64,1.12-2.46,1.75s-1.64,1.21-2.46,1.75c.16.69.37,1.4.61,2.14s.51,1.51.8,2.29a10,10,0,0,1-3.53,3.44,5.49,5.49,0,0,1-3.61.63,6.39,6.39,0,0,1-3.31-1.82A12.84,12.84,0,0,1,347.68,463.36Zm7.89-10.14,3.06-2.2c-1-.85-1.92-1.67-2.88-2.48s-1.92-1.63-2.86-2.46a.81.81,0,0,1-.21.19l1.43,3.45C354.57,450.86,355.06,452,355.57,453.22Z"/><path class="cls-2" d="M384.06,425.75a6,6,0,0,1,4-.36,7.55,7.55,0,0,1,3.73,2.41,9.63,9.63,0,0,1,2.17,3.66,8.88,8.88,0,0,1,.32,4,11.62,11.62,0,0,1-1.56,4.21,18.71,18.71,0,0,1-3.44,4.19q-4,3.72-7.79,3.94a10.45,10.45,0,0,1-7.48-2.91q-1.38-1.17-3.14-2.95t-3.58-3.82q-1.81-2-3.59-4.11c-1.18-1.39-2.24-2.7-3.18-3.91a12,12,0,0,1,1.27-2.86,22.76,22.76,0,0,1,2.08-2.92,33.63,33.63,0,0,1,2.6-2.77,30,30,0,0,1,2.82-2.37,21.69,21.69,0,0,1,2.76-1.73,8.55,8.55,0,0,1,2.44-.88,8.17,8.17,0,0,1,4,.25,8.53,8.53,0,0,1,3.12,1.83,8,8,0,0,1,2,2.87,7,7,0,0,1,.51,3.37c0,.11,0,.23,0,.35S384.08,425.56,384.06,425.75Zm-9.56,4.47a2.17,2.17,0,0,0,.78-.38,1.78,1.78,0,0,0,.54-.68,1.52,1.52,0,0,0,.1-.88,2.08,2.08,0,0,0-.59-1,1.3,1.3,0,0,0-.94-.44,1.78,1.78,0,0,0-.88.23,1.67,1.67,0,0,0-.62.59,1.14,1.14,0,0,0-.22.64,3.74,3.74,0,0,0,.66,1A4.18,4.18,0,0,0,374.5,430.22Zm7.56,7.75a2.65,2.65,0,0,0,1.12-.62,3,3,0,0,0,.78-1.08,1.69,1.69,0,0,0,.1-1.26,2.59,2.59,0,0,0-.74-1.08,1.67,1.67,0,0,0-1-.44,2,2,0,0,0-1.08.26,5.59,5.59,0,0,0-.88.72,1.56,1.56,0,0,0-.5,1.08c.33.42.69.82,1.07,1.22S381.68,437.56,382.06,438Z"/><path class="cls-2" d="M397.26,397.19a39.53,39.53,0,0,1,4.09,1.57c1.65.72,3.39,1.52,5.24,2.41s3.68,1.82,5.52,2.77,3.49,1.84,5,2.66a3.92,3.92,0,0,1,.68,2.06,7.61,7.61,0,0,1-.26,2.45,8,8,0,0,1-1.1,2.35,6,6,0,0,1-1.84,1.78,5.43,5.43,0,0,1-2.47.76,5.61,5.61,0,0,1-3-.76q-2.18-1.11-4.31-2.29t-4.06-2.26c-1.28-.72-2.46-1.41-3.54-2.06s-2-1.21-2.78-1.69l-.2.24,2.34,3.05c.77,1,1.57,2,2.38,3.09s1.46,1.89,2.32,2.95,1.69,2.09,2.49,3.06,1.52,1.86,2.15,2.65a21.19,21.19,0,0,1,1.31,1.71,10.53,10.53,0,0,1-2.61,4.38,5.61,5.61,0,0,1-3.42,1.59,6.87,6.87,0,0,1-3.79-.92,13.1,13.1,0,0,1-3.7-3.18c-.69-.83-1.42-1.77-2.18-2.81s-1.52-2.11-2.28-3.24-1.5-2.26-2.24-3.43-1.42-2.28-2.05-3.37-1.2-2.09-1.7-3-.9-1.74-1.19-2.42q.42-1.09,1.08-2.43a22.71,22.71,0,0,1,1.6-2.7,16.74,16.74,0,0,1,2.17-2.56,10.22,10.22,0,0,1,2.78-2,10,10,0,0,1,3.44-.93A10.93,10.93,0,0,1,397.26,397.19Z"/><path class="cls-2" d="M416.1,401.65c-.61-.34-1.42-.81-2.44-1.42s-2.13-1.3-3.36-2.07-2.49-1.58-3.82-2.45-2.61-1.72-3.84-2.55-2.39-1.63-3.45-2.38-1.93-1.39-2.61-1.94c.39-.77.87-1.66,1.44-2.68s1.21-2.09,1.91-3.24,1.42-2.32,2.18-3.53,1.51-2.39,2.25-3.51,1.46-2.19,2.15-3.18,1.31-1.86,1.85-2.61a4.6,4.6,0,0,1,1.32.23,7.28,7.28,0,0,1,1.71.8,9,9,0,0,1,1.65,1.36,5.4,5.4,0,0,1,1.16,1.87,5.13,5.13,0,0,1,.23,2.38,7.23,7.23,0,0,1-1.14,2.89L409.93,385l1.35.85c.24-.38.56-.92,1-1.61s.84-1.41,1.32-2.17,1-1.5,1.55-2.22a11.1,11.1,0,0,1,1.6-1.74,8.78,8.78,0,0,1,2.88.89,4.87,4.87,0,0,1,1.85,1.67,4.07,4.07,0,0,1,.61,2.3,6,6,0,0,1-.85,2.76c-.19.34-.37.65-.55.94l-.58.92c-.2.33-.44.71-.72,1.12l-1,1.54,1.59,1,.37-.6,5.22-8.35a6.78,6.78,0,0,1,2.91.5,5.76,5.76,0,0,1,2.33,1.72,5.39,5.39,0,0,1,1.13,2.76,6.63,6.63,0,0,1-.72,3.63c-.17.39-.43.9-.76,1.51s-.71,1.27-1.13,2-.86,1.43-1.34,2.17-.93,1.44-1.38,2.12-.87,1.27-1.27,1.79a15,15,0,0,1-1,1.19,5,5,0,0,1-3.55,1.53A10.25,10.25,0,0,1,416.1,401.65Z"/><path class="cls-2" d="M423.45,362.7l2.45-5.35-2.43-1.16-2.41-1.13c-.77-.37-1.46-.71-2.09-1s-1.11-.61-1.46-.84a6.44,6.44,0,0,1-.09-2.4,7.81,7.81,0,0,1,2.16-4.41,6.94,6.94,0,0,1,2-1.43,6.07,6.07,0,0,1,2.35-.58,5.65,5.65,0,0,1,2.59.56l1.87.85,2.67,1.22,3.23,1.48,3.6,1.64,3.75,1.73,3.64,1.68,1.6.75q.87.42,1.32.69a2.76,2.76,0,0,1,.12,1.43,10.26,10.26,0,0,1-.47,2.11,13.47,13.47,0,0,1-1,2.3,8.1,8.1,0,0,1-1.51,2,5.2,5.2,0,0,1-2,1.21,4.07,4.07,0,0,1-2.46-.05,13.55,13.55,0,0,1-1.41-.49l-1.7-.69-1.64-.7c-.52-.22-.92-.41-1.22-.54l-2.38,5.22,8.56,3.91a4.13,4.13,0,0,1,.09,1.57,11,11,0,0,1-.46,2.2,11.14,11.14,0,0,1-1.05,2.32,6.48,6.48,0,0,1-1.69,1.91,5.46,5.46,0,0,1-2.41,1,6.16,6.16,0,0,1-3.14-.44c-.52-.19-1.31-.51-2.36-.95l-3.61-1.51q-2-.86-4.29-1.84t-4.42-2c-1.44-.66-2.79-1.28-4.05-1.88s-2.29-1.11-3.1-1.55a7.87,7.87,0,0,1-.24-2.55,8,8,0,0,1,.58-2.44,8.54,8.54,0,0,1,1.22-2.09,7,7,0,0,1,1.7-1.53,5.38,5.38,0,0,1,2-.77,4.59,4.59,0,0,1,2.19.21c.64.22,1.27.47,1.89.73l1.69.73c.5.23.91.43,1.24.61Z"/><path class="cls-2" d="M437.07,334.63l.09-.1a2.54,2.54,0,0,1-.28-.29l-.26-.28-2.55-2.54-2.57-2.58-2.32-2.35c-.73-.74-1.33-1.36-1.82-1.89a7.41,7.41,0,0,1-.21-2.17,10.07,10.07,0,0,1,1.32-4.67A6.8,6.8,0,0,1,430,315.9a5.53,5.53,0,0,1,2.15-1.08,5.87,5.87,0,0,1,2.79,0c.8.17,1.8.42,3,.76s2.53.72,3.94,1.14,2.87.87,4.38,1.35l4.4,1.41c1.42.45,2.75.89,4,1.31l3.17,1.08a9.3,9.3,0,0,1,.37,4.17,7.2,7.2,0,0,1-1.28,3.19,5.38,5.38,0,0,1-5.68,2L450,331c-.38-.11-.81-.24-1.27-.4L447.1,330l-2.29-.76a.22.22,0,0,1-.05.11l-.05.12a1.64,1.64,0,0,1,.22.25,2.32,2.32,0,0,0,.21.25l.81.89,1.39,1.46c.52.54,1.08,1.14,1.68,1.78l1.74,1.83c.56.58,1.06,1.1,1.5,1.59s.78.84,1,1.1a8.2,8.2,0,0,1,.24,4.08,7.07,7.07,0,0,1-4.7,5.31,8.43,8.43,0,0,1-4.16.28c-.81-.13-1.84-.35-3.1-.66s-2.59-.66-4-1.06-2.92-.81-4.44-1.26-2.95-.86-4.29-1.27-2.54-.79-3.6-1.13-1.86-.59-2.38-.77a5.11,5.11,0,0,1-.72-2.2,7,7,0,0,1,.16-2.37,8.49,8.49,0,0,1,.88-2.23,7.56,7.56,0,0,1,1.45-1.83,5.45,5.45,0,0,1,1.84-1.14,4,4,0,0,1,2.09-.2c.84.17,1.58.32,2.19.48s1.22.33,1.83.53l2,.63C435.18,334.08,436,334.34,437.07,334.63Z"/><path class="cls-2" d="M435.12,287.52a17.81,17.81,0,0,1,3,0c1.38.08,2.95.23,4.71.43s3.61.44,5.57.7l5.64.77c1.8.25,3.42.49,4.87.71l3.29.49a9.23,9.23,0,0,1,1.06,3.55,7.57,7.57,0,0,1-.47,3.6,6.11,6.11,0,0,1-2.17,2.76,6.25,6.25,0,0,1-4,1l-1.64-.13-.89-.12a22.17,22.17,0,0,1,2.17,1.17,23.45,23.45,0,0,1,2.12,1.46,17.4,17.4,0,0,1,1.94,1.69,13,13,0,0,1,1.58,1.87,6.62,6.62,0,0,1-.14,2.43,7.2,7.2,0,0,1-.94,2.18,6.29,6.29,0,0,1-1.57,1.68,5,5,0,0,1-2,.89,4.65,4.65,0,0,1-2.23-.17,5.93,5.93,0,0,1-2.31-1.5c-.44-.41-.83-.78-1.19-1.1s-.69-.61-1-.86l-.24.29a2.47,2.47,0,0,1-.28.28,9,9,0,0,1-3.05,2.06,12,12,0,0,1-3.55.84,13.25,13.25,0,0,1-3.66-.19,13.93,13.93,0,0,1-3.4-1.08,11.61,11.61,0,0,1-2.81-1.82,7.45,7.45,0,0,1-1.86-2.41,11.79,11.79,0,0,1-1.07-3.75,23.25,23.25,0,0,1-.12-4.27,27.88,27.88,0,0,1,.6-4.36,30.56,30.56,0,0,1,1.12-4,19.32,19.32,0,0,1,1.42-3.17A6.45,6.45,0,0,1,435.12,287.52ZM440.84,300a2.81,2.81,0,0,0-.68,1.37,2.72,2.72,0,0,0,.07,1.31,2.6,2.6,0,0,0,.6,1,1.45,1.45,0,0,0,.86.48c1.19.17,1.92-.18,2.2-1.07a5.31,5.31,0,0,0,.28-1.11c.06-.38.11-.77.17-1.15a.43.43,0,0,0-.11-.22.42.42,0,0,0-.21-.17c-.52-.1-1-.17-1.5-.23Z"/><path class="cls-2" d="M67.41,368c-13.57-.62-38.51-8.72-45.92-35.21-5-17.94-4.52-34.13,1.48-48.11,7.89-18.41,25-32.55,50.87-42a13.5,13.5,0,1,1,9.31,25.34C41.56,283.2,42.25,306.7,47.5,325.47c3.91,14,19.49,15.4,21.25,15.51h-.12Z"/><path class="cls-3" d="M41.45,352.3a2,2,0,0,1-1.11-.33,34,34,0,0,1-14.21-19.64A2,2,0,1,1,30,331.25a30.08,30.08,0,0,0,12.57,17.39,2,2,0,0,1-1.11,3.66Z"/><path class="cls-2" d="M407.46,305.66l-10.55-24.85-.11.05c1.61-.72,15.72-7.47,14.5-21.95-1.62-19.33-9.12-41.49-52.88-41.49-.22,0-.44,0-.67,0a13.5,13.5,0,0,1-.06-27c27.51-.09,48.53,7.16,62.35,21.65,10.5,11,16.61,26,18.17,44.58C440.51,284.05,420,300.35,407.46,305.66Z"/><path class="cls-3" d="M411.56,215.69a2,2,0,0,1-1.64-.86c-4.64-6.67-13.72-11.3-26.27-13.39a2,2,0,1,1,.66-3.94c13.64,2.26,23.63,7.47,28.89,15.05a2,2,0,0,1-1.64,3.14Z"/><rect class="cls-4" x="109.49" y="376.66" width="272.97" height="32.55" rx="3.08" transform="translate(-65.76 49.83) rotate(-10.21)"/><path class="cls-2" d="M117,435.66a6.1,6.1,0,0,1-6-5l-4.68-26a6.09,6.09,0,0,1,4.91-7.06l262.58-47.3a6.08,6.08,0,0,1,7.06,4.91l4.68,26a6.07,6.07,0,0,1-4.9,7.06L118.1,435.56A5.74,5.74,0,0,1,117,435.66Zm257.92-79.43h0L112.33,403.52a.08.08,0,0,0-.06.09l4.68,26a.07.07,0,0,0,.09.06l262.59-47.29h0a.11.11,0,0,0,.06-.09l-4.68-26A.08.08,0,0,0,374.93,356.23Z"/><rect class="cls-4" x="73.32" y="130.12" width="299.19" height="260.69" rx="18.14" transform="translate(-42.64 43.64) rotate(-10.21)"/><path class="cls-2" d="M113.39,415.34a21.13,21.13,0,0,1-20.76-17.4L52.85,177.09a21.13,21.13,0,0,1,17.06-24.56l258.74-46.6A21.13,21.13,0,0,1,353.2,123L393,343.84a21.14,21.14,0,0,1-17.06,24.56L117.18,415A21.11,21.11,0,0,1,113.39,415.34Zm219-303.75a15.71,15.71,0,0,0-2.72.24L71,158.44A15.14,15.14,0,0,0,58.75,176L98.53,396.88a15.15,15.15,0,0,0,17.59,12.22l258.74-46.61h0a15.14,15.14,0,0,0,12.22-17.58L347.3,124.05a15.15,15.15,0,0,0-14.87-12.46Z"/><rect class="cls-5" x="101.83" y="152.74" width="239.12" height="202.36" rx="31.16" transform="translate(-41.5 43.27) rotate(-10.21)"/><path class="cls-2" d="M146.79,372.67a34.21,34.21,0,0,1-33.6-28.11L88.36,206.73a34.2,34.2,0,0,1,27.56-39.67l174-31.34a34.18,34.18,0,0,1,39.67,27.56l24.82,137.83a34.19,34.19,0,0,1-27.56,39.67l-174,31.34A34,34,0,0,1,146.79,372.67ZM296,141.17a28.9,28.9,0,0,0-5.05.45L117,173a28.19,28.19,0,0,0-22.72,32.71L119.09,343.5a28.19,28.19,0,0,0,32.7,22.72l174-31.35h0a28.19,28.19,0,0,0,22.72-32.7L323.7,164.34A28.18,28.18,0,0,0,296,141.17Z"/><path class="cls-6" d="M386.72,275.72s1.81-3.87,5.53-4.75,13.83,3.15,18,20.45-.28,28.21-7.07,31.62-8.14,1.51-9,1"/><path class="cls-2" d="M396.84,328a6.68,6.68,0,0,1-4.23-1.42l-.11-.08a3,3,0,0,1-.91-4.13,3,3,0,0,1,4.15-.92l.45.32c1,.72,3.93-.59,5.6-1.43,5.44-2.73,9.25-12.52,5.5-28.24-3.71-15.55-12.27-18.7-14.36-18.22a6.21,6.21,0,0,0-3.5,3.12,3,3,0,0,1-5.43-2.56c.25-.53,2.57-5.22,7.56-6.4,4.79-1.12,16.87,3,21.57,22.67,4.82,20.21-1.64,31.48-8.65,35C401.12,327.41,398.68,328,396.84,328Z"/><path class="cls-6" d="M390.29,330.33c4.87-4.89,8.72-16,5.32-30.68s-7.57-23.19-12.41-27.1-18-11.82-21.05-15.17-6.72-16.36-10-23.21-9.91-7.76-15.05-6.44-10.91,7.09-10.28,19.25,7.45,24.16,7.21,26.73S313,287.78,304.54,293s-5.81,12.4-4,16,6.48,5.72,10.8,5.37,16.52-7.27,16.52-7.27-11.75,6.52-14.77,8.83-3.42,7.17-2,10.12,6,3.95,9.62,3.24S331.6,325,331.6,325s-9.56,4.5-11.37,6.47-3.12,3.19-1.43,7,6.8,3,10.86,1.8l6.54-2.58s-11.69,4.63-9.06,11.3,25.17-.66,35.81-4.53S385.41,335.22,390.29,330.33Z"/><path class="cls-2" d="M333.72,354.7c-6.39,0-8.47-2.31-9.37-4.6a8,8,0,0,1-.12-5.84c-4.07.13-6.8-1.44-8.18-4.57-1.5-3.42-1.17-5.69-.26-7.4-3.16-.55-6.05-2.13-7.41-4.94a12.42,12.42,0,0,1,0-10.07c-4.57-.6-8.63-3.21-10.49-6.94-5.56-11.18.82-17.29,5.12-19.93,2-1.25,4.77-2.86,7.69-4.57,6.25-3.68,17.53-10.31,20.25-12.84-.29-1-.94-2.69-1.49-4.12-2-5.35-5.14-13.44-5.57-21.75-.73-13.88,6.29-20.69,12.52-22.3s14.5-.38,18.51,8c1.33,2.78,2.71,6.5,4,10.1,1.78,4.8,4,10.78,5.46,12.4s7,5.37,11.45,8.34c3.67,2.46,7.14,4.78,9.26,6.5,5.61,4.54,10,13.95,13.44,28.76,3.8,16.36-.92,28.26-6.12,33.47h0c-6.34,6.36-22,12.49-28.43,14.84C348.81,352.81,339.5,354.7,333.72,354.7Zm2.48-20a3,3,0,0,1,1.1,5.79c-1.87.75-8.63,4.21-7.37,7.41.37.94,7.22,2.77,32-6.25,12.62-4.6,22.42-9.62,26.23-13.44h0c4.44-4.45,7.56-14.8,4.53-27.88-3.08-13.27-6.91-21.83-11.38-25.45-1.9-1.54-5.42-3.9-8.82-6.18-5.43-3.64-10.56-7.07-12.57-9.31s-3.89-6.95-6.62-14.32c-1.29-3.48-2.63-7.07-3.84-9.61-3-6.29-9.1-5.47-11.58-4.82-4.05,1.05-8.58,5.91-8,16.18.38,7.36,3.27,14.92,5.19,19.92,1.49,3.91,2.15,5.7,2,7.24-.26,2.8-3,5.1-23.35,17-2.88,1.7-5.61,3.3-7.58,4.51-4.73,2.91-5.62,6.66-2.89,12.15,1.19,2.38,4.58,4,7.88,3.71,2.32-.19,9.27-3.58,14.13-6.25l1.17-.66a3,3,0,0,1,2.94,5.23l-1.2.68c-3.82,2.14-11.14,6.34-13.23,7.93-1.71,1.31-2,4.59-1.12,6.43.65,1.36,3.68,2.12,6.35,1.6a46.68,46.68,0,0,0,8.24-3.15l1.94-.93a3,3,0,0,1,2.62,5.4l-1.89.91c-3.85,1.89-7.83,4.09-8.61,4.9l-.2.23c-1.51,1.63-1.53,1.66-.69,3.57.72,1.64,4.25,1,7.14.17l6.41-2.53A3,3,0,0,1,336.2,334.7Z"/><path class="cls-6" d="M73,332.22s-3.05-3-6.84-2.52-11.86,7.77-9.7,25.43,10.11,26.34,17.66,27.16,8.15-1.42,8.78-2.24"/><path class="cls-2" d="M77.06,385.46a30.09,30.09,0,0,1-3.23-.19c-7.78-.85-17.78-9.15-20.31-29.78-2.46-20.06,7.43-28.15,12.31-28.77,5.08-.64,8.89,2.95,9.31,3.36a3,3,0,0,1-4.19,4.3,6.15,6.15,0,0,0-4.37-1.7c-2.13.26-9,6.21-7.1,22.08,2,16,9,23.89,15,24.55,1.87.2,5.1.39,5.76-.62a4.58,4.58,0,0,1,.31-.46,3,3,0,0,1,4.78,3.63l-.06.09C84.12,383.73,82.21,385.46,77.06,385.46Z"/><path class="cls-6" d="M88.75,384.64c-6.27-2.88-13.77-12-15.69-26.89s-1-24.37,2.17-29.73S88,310.65,89.67,306.46s.58-17.68,1.25-25.24S97.5,270.49,102.77,270s12.71,2.83,16.35,14.44,1.46,25.24,2.58,27.57,24.65,5.83,34.37,7.75,9.77,9.59,9.35,13.63-4.09,7.62-8.26,8.8-18-1.05-18-1.05,13.29,2,16.92,3.12,5.71,5.53,5.41,8.78-4.22,5.79-7.89,6.4-11.71-.25-11.71-.25,10.52.88,12.91,2.1,4,1.89,3.8,6.1-5.33,5.18-9.56,5.48l-7-.15s12.56.27,12.43,7.43-23.81,8.17-35.14,8.25S95,387.52,88.75,384.64Z"/><path class="cls-2" d="M118,391.36c-7.49,0-22.85-.46-30.54-4h0c-6.69-3.07-15.27-12.57-17.42-29.23-2-15.08-1.11-25.43,2.57-31.65,1.38-2.34,3.82-5.73,6.41-9.32,3.11-4.33,7-9.71,7.82-11.81s.79-8.4.79-13.52c0-3.84,0-7.81.26-10.88.82-9.3,8-13.33,14.54-14s15.35,3.27,19.52,16.53c2.49,7.94,2.41,16.6,2.36,22.33,0,1.53,0,3.35,0,4.37,3.43,1.43,16.31,3.71,23.46,5,3.33.59,6.47,1.14,8.8,1.6,4.95,1,13.06,4.48,11.75,16.89-.44,4.15-3.34,8-7.41,10.17a12.37,12.37,0,0,1,3.47,9.45c-.29,3.11-2.44,5.6-5.21,7.21,1.45,1.29,2.55,3.3,2.33,7q-.3,5.13-6.07,7.14a8,8,0,0,1,1.93,5.51c-.09,4.69-4.14,10.94-38.12,11.19Zm-28-9.44c4.9,2.25,15.86,3.55,29.28,3.43,26.36-.19,32.14-4.29,32.16-5.3.06-3.43-7.59-4.34-9.49-4.38a3,3,0,0,1,.06-6h.07l6.88.13c3-.22,6.53-.86,6.63-2.64.12-2.09.08-2.11-1.9-3.12l-.27-.14c-1-.49-5.5-1.16-9.76-1.59l-2.1-.19a3,3,0,0,1,.57-6l2.15.2a46.67,46.67,0,0,0,8.81.08c2.69-.45,5.26-2.22,5.4-3.71.19-2.05-1.24-5-3.29-5.64-2.52-.77-10.84-2.14-15.17-2.82l-1.36-.21a3,3,0,0,1,.93-5.93l1.33.2c5.48.82,13.17,1.56,15.42.93,3.19-.9,5.81-3.58,6.08-6.22.65-6.1-1.5-9.3-6.94-10.38-2.27-.45-5.39-1-8.69-1.58-23.19-4.1-26.59-5.28-27.81-7.81-.67-1.4-.68-3.31-.64-7.5.05-5.35.12-13.44-2.09-20.47-3.08-9.81-9-12.79-13.18-12.36-2.55.26-8.57,1.63-9.18,8.56-.24,2.8-.24,6.64-.23,10.34,0,7.87-.07,12.85-1.21,15.74s-4.71,7.8-8.53,13.11c-2.39,3.32-4.87,6.75-6.12,8.87-2.93,4.95-3.52,14.31-1.78,27.82,1.72,13.31,8.26,21.92,14,24.55Z"/><path class="cls-2" d="M168,263.54h0a18.63,18.63,0,0,1-21.57-15l-1.22-6.77,10.09-5.64-11.41-1.67-1.23-6.86a18.63,18.63,0,0,1,15-21.57h0a18.62,18.62,0,0,1,21.57,15L183,242A18.64,18.64,0,0,1,168,263.54Z"/><path class="cls-2" d="M128.6,218.06a2.92,2.92,0,0,1-.5-.05,3,3,0,0,1-2.46-3.46c1.94-11.46,12-21.53,25-25.06,11.53-3.13,23.61-.74,31.53,6.23a3,3,0,0,1-4,4.5c-6.42-5.65-16.38-7.55-26-4.94-10.8,2.93-19.11,11.08-20.66,20.28A3,3,0,0,1,128.6,218.06Z"/><path class="cls-2" d="M294.32,190.31a3,3,0,0,1-2.69-1.68c-4.12-8.36-14.39-13.81-25.59-13.52-10,.24-19,4.9-23.5,12.15a3,3,0,0,1-5.09-3.18c5.59-8.94,16.48-14.67,28.44-15,13.49-.34,26,6.45,31.12,16.87a3,3,0,0,1-1.37,4A3,3,0,0,1,294.32,190.31Z"/><path class="cls-2" d="M274,242.87h0a18.63,18.63,0,0,1-21.57-15l-1.22-6.77,10.09-5.64L249.9,213.8l-1.23-6.86a18.63,18.63,0,0,1,15-21.57h0a18.63,18.63,0,0,1,21.57,15L289,221.3A18.63,18.63,0,0,1,274,242.87Z"/><path class="cls-7" d="M97.46,80.27l13.69,49L55.57,86.9l10.32,69L29.61,120.4s11.1,44.59,13.69,49l14.06,23.77,90.38-53.45L133.68,115.9C131.43,112.11,97.46,80.27,97.46,80.27Z"/><path class="cls-2" d="M57.36,196.13a3,3,0,0,1-2.58-1.47L40.72,170.89c-2.68-4.53-12.15-42.25-14-49.77a3,3,0,0,1,5-2.86L61.6,147.54l-9-60.19a3,3,0,0,1,4.79-2.83l48.46,36.91L94.57,81.08a3,3,0,0,1,4.94-3c5.72,5.37,34.41,32.33,36.75,36.3l14.06,23.77a3,3,0,0,1,.32,2.27,3,3,0,0,1-1.37,1.84L58.89,195.71A2.94,2.94,0,0,1,57.36,196.13ZM35.13,130c4.66,18.2,9.46,35.62,10.75,37.82L58.42,189l85.21-50.4L131.1,117.43c-1.29-2-14.18-14.63-27.85-27.58L114,128.42a3,3,0,0,1-4.71,3.2L59.63,93.76l9.22,61.74a3,3,0,0,1-5.06,2.58Z"/><circle class="cls-7" cx="49.9" cy="76.71" r="11.22"/><path class="cls-2" d="M49.92,90.94a14.42,14.42,0,0,1-3.56-.45,14.16,14.16,0,1,1,3.56.45Zm0-22.45a8.23,8.23,0,1,0,7.09,4h0a8.18,8.18,0,0,0-5-3.78A8.49,8.49,0,0,0,49.88,68.49Z"/><circle class="cls-7" cx="23.58" cy="110.99" r="9.45"/><path class="cls-2" d="M23.61,123.43A12.45,12.45,0,1,1,34.3,104.65h0a12.44,12.44,0,0,1-10.69,18.78Zm0-18.89a6.45,6.45,0,1,0,5.57,3.16h0A6.47,6.47,0,0,0,23.57,104.54Z"/><circle class="cls-7" cx="92.29" cy="70.35" r="9.45"/><path class="cls-2" d="M92.31,82.79A12.45,12.45,0,1,1,103,64h0a12.44,12.44,0,0,1-10.7,18.78Zm0-18.89a6.37,6.37,0,0,0-3.27.9,6.45,6.45,0,1,0,8.83,2.27h0a6.41,6.41,0,0,0-5.56-3.17Z"/><path class="cls-2" d="M214.63,324.23c-20.89,0-40.06-6.71-52.34-19a3,3,0,0,1,4.25-4.23c15.48,15.53,43.29,21.22,70.86,14.48,27.77-6.78,49.88-24.79,56.31-45.87a3,3,0,1,1,5.74,1.75c-7,23.07-30.84,42.68-60.63,49.95A101.86,101.86,0,0,1,214.63,324.23Z"/><path class="cls-2" d="M158.13,310.26a3,3,0,0,1-1.94-5.28l11.69-9.91a3,3,0,0,1,3.88,4.58l-11.69,9.9A3,3,0,0,1,158.13,310.26Z"/><path class="cls-2" d="M304.08,274.62a2.61,2.61,0,0,1-.67-.08l-14.94-3.4a3,3,0,0,1,1.34-5.85l14.94,3.4a3,3,0,0,1-.67,5.93Z"/><path class="cls-8" d="M335.71,29.13h-.85V28.7h2.19v.43h-.84v2.35h-.5Zm1.94-.48h.09l1.35,1.51,1.34-1.51h.08v2.83H340V29.73l-.88,1H339l-.88-1v1.75h-.51Z"/><path class="cls-8" d="M123.57,10.59a10.91,10.91,0,0,0-10.92,10.92v10h8.29V21.67a5.75,5.75,0,0,1,.77-3,2.25,2.25,0,0,1,1.86-1.24,2.22,2.22,0,0,1,1.85,1.24,5.75,5.75,0,0,1,.78,3v9.81h8.28v-10a10.89,10.89,0,0,0-10.91-10.92"/><path class="cls-8" d="M322,10.59a10.91,10.91,0,0,0-10.92,10.92v10h8.29V21.67a5.85,5.85,0,0,1,.78-3,2,2,0,0,1,3.72,0,5.84,5.84,0,0,1,.77,3v9.81h8.28v-10A10.89,10.89,0,0,0,322,10.59"/><path class="cls-8" d="M143.41,7.9a4.61,4.61,0,1,0-6.52,0l1,1c1.7,1.7,1.82,2.15.2,3.76l-.92.93a4.18,4.18,0,0,0-1.23,3V31.48h8.38V16.57a4.18,4.18,0,0,0-1.23-3l-.93-.92c-1.61-1.62-1.49-2.07.21-3.77Z"/><path class="cls-8" d="M158.25,25a1.91,1.91,0,0,1-3.71,0,7.45,7.45,0,0,1-.77-3.47,7.52,7.52,0,0,1,.77-3.48,1.92,1.92,0,0,1,3.71,0,7,7,0,0,1,.72,2.45h8.29a10.91,10.91,0,1,0,0,2.06H159A6.92,6.92,0,0,1,158.25,25Z"/><path class="cls-8" d="M199.06,10.58a10.92,10.92,0,1,0,7.79,18.57,9.59,9.59,0,0,0,2.39-5.41h-7.39s-1,2.58-2.79,2.58a2.26,2.26,0,0,1-1.85-1.44,6.64,6.64,0,0,1-.69-2.23h12.87s.88-5.25-2.64-8.81A10.61,10.61,0,0,0,199.06,10.58Zm-2.4,9a8.23,8.23,0,0,1,.55-1.62,2.31,2.31,0,0,1,1.85-1.43c.75,0,1.36.52,1.88,1.47a6.3,6.3,0,0,1,.52,1.57Z"/><path class="cls-8" d="M276.65,10.58a10.92,10.92,0,1,0,7.79,18.57,9.59,9.59,0,0,0,2.39-5.41h-7.39s-1,2.58-2.79,2.58a2.27,2.27,0,0,1-1.86-1.44,7.12,7.12,0,0,1-.68-2.23H287s.88-5.25-2.63-8.81A10.63,10.63,0,0,0,276.65,10.58Zm-2.41,9a9.79,9.79,0,0,1,.55-1.62,2.31,2.31,0,0,1,1.86-1.43c.75,0,1.35.52,1.88,1.47a6.73,6.73,0,0,1,.52,1.57Z"/><path class="cls-8" d="M214.71,0a4.14,4.14,0,0,0-4.14,4.15V31.48h8.29V4.14A4.14,4.14,0,0,0,214.71,0"/><path class="cls-8" d="M230.93,10.59a10.92,10.92,0,1,0,10.92,10.92A10.91,10.91,0,0,0,230.93,10.59Zm0,15.83c-1.45,0-2.63-2.2-2.63-4.91s1.18-4.92,2.63-4.92,2.63,2.2,2.63,4.92S232.38,26.42,230.93,26.42Z"/><path class="cls-8" d="M299.12,10.59A10.92,10.92,0,1,0,310,21.51,10.92,10.92,0,0,0,299.12,10.59Zm0,15.83c-1.46,0-2.63-2.2-2.63-4.91s1.17-4.92,2.63-4.92,2.62,2.2,2.62,4.92S300.57,26.42,299.12,26.42Z"/><path class="cls-8" d="M264.68,21.51h0l0-17.38a4.14,4.14,0,1,0-8.28,0v6.77A10.92,10.92,0,0,0,246,29.24h0a10.91,10.91,0,0,0,15.44,0h0a10.91,10.91,0,0,0,3.2-7.72Zm-10.92,4.91c-1.45,0-2.63-2.2-2.63-4.91s1.18-4.92,2.63-4.92,2.63,2.2,2.63,4.92S255.21,26.42,253.76,26.42Z"/><path class="cls-8" d="M189.35,30a1.43,1.43,0,0,0-.22-.76l-4.54-6.86,3.14-5.71a4.14,4.14,0,1,0-7.13-4.2l-3.76,6.7V14.73a4.15,4.15,0,0,0-8.29,0V31.48h8.29V24.92l4.38,6.56h6.69A1.44,1.44,0,0,0,189.35,30Z"/><path class="cls-2" d="M72.7,338.52l22.85.31L73.4,344.48a3,3,0,1,1-1.49-5.87A3.55,3.55,0,0,1,72.7,338.52Z"/><path class="cls-2" d="M75,362.86l22.66,3-22.66,3a3,3,0,1,1-.79-6A3.48,3.48,0,0,1,75,362.86Z"/><path class="cls-2" d="M72.85,350.55,102.72,352l-29.56,4.54a3,3,0,1,1-.92-6A3.12,3.12,0,0,1,72.85,350.55Z"/><path class="cls-2" d="M394.13,315.48l-22.76,2.07,21.44-7.92a3,3,0,1,1,1.32,5.85Z"/><path class="cls-2" d="M389.33,291.51l-22.84-.62,22.22-5.35a3,3,0,1,1,1.41,5.89A3.53,3.53,0,0,1,389.33,291.51Z"/><path class="cls-2" d="M392.73,303.53l-29.86,1.68,28.92-7.6a3,3,0,1,1,1.54,5.83A3.23,3.23,0,0,1,392.73,303.53Z"/><rect class="cls-9" x="169.76" y="375.52" width="13.36" height="13.36" transform="translate(-64.96 37.33) rotate(-10.21)"/><path class="cls-2" d="M171.05,392a2,2,0,0,1-2-1.65l-2.37-13.14a2,2,0,0,1,1.62-2.33l13.15-2.37a2,2,0,0,1,2.32,1.62l2.37,13.15a2,2,0,0,1-1.62,2.32l-13.14,2.37Zm0-13.53,1.66,9.21,9.21-1.66-1.66-9.21Z"/><rect class="cls-10" x="192.14" y="371.49" width="13.36" height="13.36" transform="translate(-63.89 41.23) rotate(-10.21)"/><path class="cls-2" d="M193.43,387.93a2,2,0,0,1-2-1.65l-2.37-13.14a2,2,0,0,1,1.62-2.33l13.15-2.37a2,2,0,0,1,2.32,1.62l2.37,13.15a2,2,0,0,1-1.62,2.32l-13.14,2.37A2.19,2.19,0,0,1,193.43,387.93Zm0-13.53,1.66,9.2,9.21-1.65-1.66-9.21Z"/><rect class="cls-9" x="214.76" y="366.6" width="13.36" height="13.36" transform="translate(-62.66 45.17) rotate(-10.21)"/><path class="cls-2" d="M216.05,383a2,2,0,0,1-2-1.64l-2.36-13.15a2,2,0,0,1,1.61-2.32l13.15-2.37a2,2,0,0,1,2.32,1.61l2.37,13.15a2,2,0,0,1-.33,1.5,2,2,0,0,1-1.28.82L216.41,383Zm0-13.53,1.66,9.21,9.21-1.66-1.66-9.21Z"/><rect class="cls-10" x="280.33" y="354.74" width="22.94" height="13.36" transform="translate(-59.45 57.45) rotate(-10.21)"/><path class="cls-2" d="M281.69,372.65a2.62,2.62,0,0,1-2.57-2.16l-2.37-13.14a2.64,2.64,0,0,1,2.11-3.05l22.58-4.06a2.62,2.62,0,0,1,3,2.11l2.37,13.15a2.62,2.62,0,0,1-2.12,3l-22.57,4.07A2.49,2.49,0,0,1,281.69,372.65Zm.68-13.65,1.44,8,17.41-3.14-1.43-8Z"/></g></g></svg>