<svg id="Layer_1" data-name="Layer 1" xmlns="http://www.w3.org/2000/svg" viewBox="0 0 644.12 644.12"><defs><style>.cls-1{fill:#ff6d00;}.cls-1,.cls-2,.cls-3,.cls-4,.cls-5,.cls-6,.cls-7,.cls-9{stroke:#231f20;}.cls-1,.cls-2,.cls-9{stroke-linecap:round;stroke-linejoin:round;}.cls-1,.cls-2,.cls-3,.cls-4,.cls-5,.cls-6,.cls-7{stroke-width:6px;}.cls-2,.cls-9{fill:none;}.cls-3{fill:#ffca28;}.cls-3,.cls-4,.cls-5,.cls-6,.cls-7{stroke-miterlimit:10;}.cls-4{fill:#ffb300;}.cls-5{fill:#7b1fa2;}.cls-6{fill:#6a1b9a;}.cls-7{fill:#8e24aa;}.cls-8{fill:#231f20;}.cls-9{stroke-width:5.34px;}</style></defs><title>Vector Smart Object123</title><circle class="cls-1" cx="322.69" cy="320.13" r="265.73"/><path class="cls-2" d="M4435.6,576a319.38,319.38,0,0,1,383-93.57" transform="translate(-4364.54 -450.96)"/><path class="cls-2" d="M4437.28,972.14a319.53,319.53,0,0,1-45.5-321.34" transform="translate(-4364.54 -450.96)"/><path class="cls-2" d="M4761.38,1083.27A319.77,319.77,0,0,1,4484,1019.54" transform="translate(-4364.54 -450.96)"/><path class="cls-2" d="M4973.12,913.55a320.48,320.48,0,0,1-133.95,139.75" transform="translate(-4364.54 -450.96)"/><path class="cls-2" d="M4897.69,533.77a319.57,319.57,0,0,1,100.59,307.76" transform="translate(-4364.54 -450.96)"/><path class="cls-3" d="M4899.76,723.75H4473.43a8.09,8.09,0,0,0-8.08,8.09V982.67a8.08,8.08,0,0,0,8.08,8.08h426.33a8.08,8.08,0,0,0,8.08-8.08V731.84A8.09,8.09,0,0,0,4899.76,723.75Z" transform="translate(-4364.54 -450.96)"/><path class="cls-4" d="M4899.76,723.75H4473.43a8.09,8.09,0,0,0-8.08,8.09v32.33h442.49V731.84A8.09,8.09,0,0,0,4899.76,723.75Z" transform="translate(-4364.54 -450.96)"/><path class="cls-5" d="M4727.9,723.75h-82.6a8.09,8.09,0,0,0-8.09,8.09V764H4736V731.84A8.09,8.09,0,0,0,4727.9,723.75Z" transform="translate(-4364.54 -450.96)"/><path class="cls-5" d="M4884,574.41c-7.93-20.66-20.43-40.84-33.46-54a24.7,24.7,0,0,0-18.54-7.11c-24.27.57-63.82,31-117.55,90.55a8.07,8.07,0,0,0-2.09,5.41v42.77a8.09,8.09,0,0,0,8.09,8.08h124.35c27.71,0,39.14-13.48,43.86-24.79C4895,620.26,4893.3,598.63,4884,574.41Z" transform="translate(-4364.54 -450.96)"/><path class="cls-6" d="M4888.64,588.5a8.38,8.38,0,0,0-1.06-2.34c-12.21-18.45-38.59-11.55-58.56-2.5-58,26.27-82,62.46-83,64a8.08,8.08,0,0,0,6.78,12.49h92c17.63,0,30.71-5.41,38.86-16.08C4893.36,631.36,4895.08,612.16,4888.64,588.5Z" transform="translate(-4364.54 -450.96)"/><path class="cls-5" d="M4658.74,603.87c-53.74-59.52-93.29-90-117.56-90.55-7.35-.15-13.76,2.29-18.54,7.11-13,13.14-25.53,33.32-33.46,54-9.29,24.22-10.94,45.85-4.66,60.93,4.72,11.31,16.15,24.79,43.86,24.79h124.36a8.08,8.08,0,0,0,8.08-8.08V609.29A8.07,8.07,0,0,0,4658.74,603.87Z" transform="translate(-4364.54 -450.96)"/><path class="cls-6" d="M4627.17,647.64c-1-1.52-25-37.71-83-64-20-9-46.36-15.95-58.57,2.5a8.08,8.08,0,0,0-1,2.34c-6.45,23.66-4.73,42.86,5,55.54,8.16,10.68,21.23,16.09,38.86,16.09h92a8.08,8.08,0,0,0,6.78-12.49Z" transform="translate(-4364.54 -450.96)"/><path class="cls-7" d="M4720.46,593.21h-67.72a8.09,8.09,0,0,0-8.09,8.08v50.76a8.09,8.09,0,0,0,8.09,8.08h67.72a8.08,8.08,0,0,0,8.08-8.08V601.29A8.08,8.08,0,0,0,4720.46,593.21Z" transform="translate(-4364.54 -450.96)"/><path class="cls-3" d="M4934.51,644H4438.68a8.08,8.08,0,0,0-8.08,8.08v79.77a8.09,8.09,0,0,0,8.08,8.09h495.83a8.09,8.09,0,0,0,8.09-8.09V652.06A8.09,8.09,0,0,0,4934.51,644Z" transform="translate(-4364.54 -450.96)"/><rect class="cls-7" x="259.96" y="193.02" width="124.2" height="95.94"/><path class="cls-8" d="M4613.61,862.29h0a24.43,24.43,0,0,1-24.46-24.24l0-9,14.31-5-14.35-4.75,0-9.13a24.41,24.41,0,0,1,24.23-24.45h0a24.41,24.41,0,0,1,24.46,24.23l.13,27.89A24.43,24.43,0,0,1,4613.61,862.29Z" transform="translate(-4364.54 -450.96)"/><path class="cls-8" d="M4761.19,862.29h0a24.42,24.42,0,0,1-24.45-24.24l0-9,14.31-5-14.36-4.75,0-9.13a24.42,24.42,0,0,1,24.24-24.45h0a24.42,24.42,0,0,1,24.46,24.23l.12,27.89A24.42,24.42,0,0,1,4761.19,862.29Z" transform="translate(-4364.54 -450.96)"/><path class="cls-9" d="M4796.79,897.52a159.28,159.28,0,0,1-220.39,0" transform="translate(-4364.54 -450.96)"/><line class="cls-9" x1="201.98" y1="456.45" x2="221.75" y2="436.67"/><line class="cls-9" x1="442.14" y1="456.45" x2="422.37" y2="436.67"/><path class="cls-2" d="M4589,499.05a292.09,292.09,0,0,1,196.41.45" transform="translate(-4364.54 -450.96)"/><path class="cls-2" d="M4426.48,903.06a289.55,289.55,0,0,1-30.63-130" transform="translate(-4364.54 -450.96)"/><path class="cls-2" d="M4840.81,1019.54a291.23,291.23,0,0,1-276.59,17.29" transform="translate(-4364.54 -450.96)"/><path class="cls-2" d="M4977.34,773a289.39,289.39,0,0,1-44.53,154.71" transform="translate(-4364.54 -450.96)"/></svg>