<svg xmlns="http://www.w3.org/2000/svg" viewBox="0 0 602.1 523.59"><defs><style>.cls-1,.cls-3,.cls-4,.cls-7{fill:none;stroke:#668ef3;}.cls-1,.cls-7{stroke-linecap:round;stroke-linejoin:round;}.cls-1,.cls-3{stroke-width:4px;}.cls-2{fill:#668ef3;}.cls-3,.cls-4,.cls-5{stroke-miterlimit:10;}.cls-4{stroke-width:2px;}.cls-5,.cls-6{fill:#b6c5e5;opacity:0.45;}.cls-5{stroke:#b6c5e5;}.cls-7{stroke-width:6px;}</style></defs><title>stage-logo</title><g id="Слой_2" data-name="Слой 2"><g id="Слой_1-2" data-name="Слой 1"><path class="cls-1" d="M221.37,71.06A73.22,73.22,0,0,1,294.25,2H307a73.23,73.23,0,0,1,72.85,68.44"/><path class="cls-2" d="M128.13,454.45a190.86,190.86,0,0,1-33,3.07c-1.19,0-2.39,0-3.6,0-41.91-1-72.29-19.26-85.54-51.5-9.2-22.39-12.27-58.38,25.37-102.7a241.41,241.41,0,0,1,44.41-40.12,40,40,0,0,1,6.7-3l.89,53.06s-48,48.47-36.67,76.05c2.38,5.79,9.61,23.39,45.86,24.23a139.4,139.4,0,0,0,23.28-1.6s-2.82,9.8.86,22.84S128.13,454.45,128.13,454.45Z"/><rect class="cls-3" x="83.31" y="105.83" width="436.29" height="373.8" rx="47.32"/><path class="cls-3" d="M119.26,479.63H483.65a0,0,0,0,1,0,0v22a20,20,0,0,1-20,20H139.26a20,20,0,0,1-20-20v-22A0,0,0,0,1,119.26,479.63Z"/><line class="cls-3" x1="387.75" y1="437.71" x2="214.35" y2="437.71"/><path class="cls-3" d="M120.58,406.91a40.67,40.67,0,0,1-1.32-10.3V183.2c0-22.7,18.67-41.1,41.7-41.1h281c23,0,41.71,18.4,41.71,41.1V396.61a40.79,40.79,0,0,1-1.1,9.44"/><path class="cls-2" d="M230.32,296.37h0a18.91,18.91,0,0,1-18.86-18.86v-12.6l9.92-7.11-9.92-6.48V238.09a18.91,18.91,0,0,1,18.86-18.86h0a18.91,18.91,0,0,1,18.87,18.86v39.42A18.91,18.91,0,0,1,230.32,296.37Z"/><path class="cls-2" d="M374.11,297.36h0a18.92,18.92,0,0,1-18.86-18.86V265.9l9.92-7.11-9.92-6.48V239.08a18.92,18.92,0,0,1,18.86-18.87h0A18.92,18.92,0,0,1,393,239.08V278.5A18.92,18.92,0,0,1,374.11,297.36Z"/><path class="cls-2" d="M307.35,389.76a57.08,57.08,0,0,1-22.14-4.84A52.82,52.82,0,0,0,307.35,389.76Z"/><path class="cls-2" d="M307.35,357.74c18.32,0,33.82,6.14,39,14.6a3.93,3.93,0,0,1-.32.66,52.85,52.85,0,0,0,14.36-36.27c0-29.29-106.06,0-106.06,0a52.8,52.8,0,0,0,13.92,35.81C273.28,364,288.88,357.74,307.35,357.74Z"/><path class="cls-2" d="M284.47,384.59l-.16-.08Z"/><path class="cls-2" d="M307.35,389.76a53.67,53.67,0,0,0,11.2-1.19A62.34,62.34,0,0,1,307.35,389.76Z"/><path class="cls-4" d="M360.38,337.73a53,53,0,1,1-106.06,0S360.38,308.44,360.38,337.73Z"/><circle class="cls-5" cx="188.29" cy="329.48" r="15.8"/><circle class="cls-6" cx="414.5" cy="329.48" r="15.8"/><path class="cls-1" d="M194.16,105.83c8.7-24.48,53.29-43.13,107-43.13s98.28,18.65,107,43.13"/><path class="cls-1" d="M192.66,104.87c1.45-28.05,49.47-50.58,108.49-50.58s107,22.51,108.48,50.54"/><path class="cls-1" d="M224.42,68.29c0-19.48,46.14-27.5,77.55-27.5s76.76,4.54,76.52,27.5"/><path class="cls-7" d="M199.41,220.21c2.89-7.49,11.89-14.19,23.5-16.59,9-1.84,17.49-.74,23.51,2.5"/><path class="cls-7" d="M402.26,220.21c-2.89-7.49-11.89-14.19-23.5-16.59-8.95-1.84-17.49-.74-23.51,2.5"/><path class="cls-1" d="M127.82,408.18s-3.53-2.42-7.17-1.29-10.33,9.73-5.11,26.73,14.56,24.17,22.14,23.66,7.78-2.83,8.25-3.75"/><path class="cls-1" d="M152.46,457c-6.68-1.74-15.65-9.37-20.16-23.73s-5.24-23.82-3.06-29.65,9.54-19.34,10.44-23.75-2.52-17.51-3.19-25.07,4.61-11.72,9.71-13.18,13,.57,18.62,11.36,5.85,24.6,7.36,26.7,25.3,1.42,35.2,1.61,11.3,7.73,11.59,11.79-2.69,8.21-6.59,10.1-17.92,2.12-17.92,2.12,13.44-.34,17.2.11,6.59,4.45,6.87,7.71-3.14,6.43-6.65,7.67-11.57,1.81-11.57,1.81,10.51-1,13.08-.19,4.3,1.15,4.8,5.34-4.33,6-8.45,7.06l-6.94,1.09s12.42-1.94,13.54,5.14-22,12.21-33.16,14.27S159.14,458.78,152.46,457Z"/><path class="cls-2" d="M130.79,415.66,153.42,412l-20.48,10.32a3.54,3.54,0,0,1-3.18-6.33A3.87,3.87,0,0,1,130.79,415.66Z"/><path class="cls-2" d="M137.8,439.08l22.91-1L139.16,446a3.54,3.54,0,1,1-2.42-6.66A4,4,0,0,1,137.8,439.08Z"/><path class="cls-2" d="M133.3,427.42,163,423.53l-28,10.68a3.52,3.52,0,0,1-2.52-6.58A3.94,3.94,0,0,1,133.3,427.42Z"/><path class="cls-2" d="M473.55,454.38A191.13,191.13,0,0,0,507,457.52c1.19,0,2.39,0,3.59,0,41.92-1,72.3-19.26,85.54-51.5,9.21-22.39,12.27-58.38-25.36-102.7a241.77,241.77,0,0,0-44.41-40.12,40,40,0,0,0-6.7-3l-.89,53.06s48,48.47,36.67,76.05c-2.38,5.79-9.62,23.39-45.86,24.23a139.4,139.4,0,0,1-23.28-1.6s1.94,12.62.24,21.73S473.55,454.38,473.55,454.38Z"/><path class="cls-1" d="M474.28,408.18s3.53-2.42,7.17-1.29,10.33,9.73,5.11,26.73S472,457.79,464.42,457.28s-7.78-2.83-8.25-3.75"/><path class="cls-1" d="M449.64,457c6.68-1.74,15.65-9.37,20.16-23.73s5.24-23.82,3.06-29.65-9.55-19.34-10.44-23.75,2.52-17.51,3.18-25.07-4.6-11.72-9.7-13.18-13,.57-18.62,11.36-5.85,24.6-7.36,26.7-25.3,1.42-35.2,1.61-11.3,7.73-11.59,11.79,2.69,8.21,6.59,10.1,17.92,2.12,17.92,2.12-13.44-.34-17.21.11-6.59,4.45-6.86,7.71,3.14,6.43,6.65,7.67,11.57,1.81,11.57,1.81-10.51-1-13.08-.19-4.31,1.15-4.8,5.34,4.33,6,8.45,7.06l6.94,1.09s-12.42-1.94-13.54,5.14,22,12.21,33.15,14.27S443,458.78,449.64,457Z"/><path class="cls-2" d="M469.15,422.32,448.68,412l22.63,3.66a3.54,3.54,0,1,1-1.13,7A4,4,0,0,1,469.15,422.32Z"/><path class="cls-2" d="M462.94,446l-21.55-7.83,22.91,1a3.54,3.54,0,1,1-.3,7.08A3.39,3.39,0,0,1,462.94,446Z"/><path class="cls-2" d="M467.08,434.21l-28-10.68,29.71,3.89a3.53,3.53,0,0,1-.92,7A3.61,3.61,0,0,1,467.08,434.21Z"/></g></g></svg>